<svg width="198" height="21" viewBox="0 0 198 21" fill="none" xmlns="http://www.w3.org/2000/svg">
<path d="M15.6 20.325C13.4667 18.7917 11.5833 17.1167 9.95 15.3C8.33333 13.4833 6.98333 11.5667 5.9 9.55L8.85 8C8.96667 8.21667 9.075 8.41667 9.175 8.6C9.275 8.76667 9.4 8.95833 9.55 9.175C10.0667 9.09167 10.55 8.93333 11 8.7C11.4667 8.46667 11.8417 8.125 12.125 7.675C12.425 7.20833 12.575 6.60833 12.575 5.875C12.575 4.94167 12.2917 4.20833 11.725 3.675C11.1583 3.14167 10.3917 2.875 9.425 2.875C8.84167 2.875 8.225 2.88333 7.575 2.9C6.94167 2.91667 6.33333 2.95 5.75 3L5.725 20L2.65 20.325L2.225 3.275L1 3.45L0.5 1.25C0.966667 1.15 1.575 1.05 2.325 0.949999C3.075 0.833332 3.89167 0.724999 4.775 0.624999C5.65833 0.508332 6.525 0.416665 7.375 0.35C8.24167 0.283333 9.01667 0.249999 9.7 0.249999C11.6333 0.249999 13.1667 0.733333 14.3 1.7C15.4333 2.66667 16 4.05833 16 5.875C16 6.95833 15.7417 7.86667 15.225 8.6C14.7083 9.33333 14.0333 9.90833 13.2 10.325C12.3833 10.725 11.5083 10.975 10.575 11.075C12.1417 13.4917 14.4167 16.0333 17.4 18.7L15.6 20.325ZM32.0646 17.55C31.5813 18.2 31.0646 18.725 30.5146 19.125C29.9813 19.525 29.3646 19.8167 28.6646 20C27.9646 20.1833 27.1063 20.275 26.0896 20.275C24.6396 20.275 23.398 19.9583 22.3646 19.325C21.3313 18.675 20.5396 17.8083 19.9896 16.725C19.4396 15.625 19.1646 14.4 19.1646 13.05C19.1646 11.6833 19.448 10.4583 20.0146 9.375C20.5813 8.275 21.373 7.40833 22.3896 6.775C23.423 6.14167 24.623 5.825 25.9896 5.825C27.323 5.825 28.4646 6.13333 29.4146 6.75C30.3813 7.35 31.123 8.21667 31.6396 9.35C32.1563 10.4667 32.4146 11.8 32.4146 13.35V13.775H23.3646L22.8146 11.825L28.9646 11.325C28.9146 10.4417 28.6646 9.725 28.2146 9.175C27.7813 8.60833 27.0813 8.325 26.1146 8.325C24.998 8.325 24.073 8.74167 23.3396 9.575C22.623 10.3917 22.2646 11.5583 22.2646 13.075C22.2646 14.1583 22.4646 15.0583 22.8646 15.775C23.2813 16.475 23.798 17 24.4146 17.35C25.048 17.6833 25.6813 17.85 26.3146 17.85C27.3813 17.85 28.3313 17.675 29.1646 17.325C30.0146 16.9583 30.6813 16.4667 31.1646 15.85L32.0646 17.55ZM44.9973 9.8C44.5139 9.33333 43.8389 8.95 42.9723 8.65C42.1056 8.35 41.2473 8.2 40.3973 8.2C39.5639 8.2 38.9723 8.34167 38.6223 8.625C38.2723 8.90833 38.0973 9.24167 38.0973 9.625C38.0973 9.99167 38.3056 10.3167 38.7223 10.6C39.1556 10.8833 39.9139 11.1333 40.9973 11.35C42.8806 11.7167 44.2556 12.2917 45.1223 13.075C46.0056 13.8417 46.4473 14.8583 46.4473 16.125C46.4473 17.4583 45.9389 18.4833 44.9223 19.2C43.9223 19.9167 42.4389 20.275 40.4723 20.275C39.6389 20.275 38.8056 20.1167 37.9723 19.8C37.1556 19.4667 36.4223 19.0667 35.7723 18.6C35.1389 18.1167 34.6556 17.6667 34.3223 17.25L35.5473 15.625C35.8639 15.9583 36.3139 16.2917 36.8973 16.625C37.4973 16.9583 38.1306 17.2333 38.7973 17.45C39.4806 17.6667 40.0806 17.775 40.5973 17.775C41.4473 17.775 42.0639 17.6417 42.4473 17.375C42.8473 17.1083 43.0473 16.7333 43.0473 16.25C43.0473 15.7167 42.7639 15.2833 42.1973 14.95C41.6473 14.6167 40.7806 14.325 39.5973 14.075C37.8806 13.725 36.6473 13.1833 35.8973 12.45C35.1473 11.7167 34.7723 10.8417 34.7723 9.825C34.7723 8.675 35.2639 7.725 36.2473 6.975C37.2306 6.20833 38.6306 5.825 40.4473 5.825C41.2973 5.825 42.0973 5.94167 42.8473 6.175C43.6139 6.39167 44.2723 6.675 44.8223 7.025C45.3889 7.375 45.7973 7.725 46.0473 8.075L44.9973 9.8ZM61.3127 17.55C60.8294 18.2 60.3127 18.725 59.7627 19.125C59.2294 19.525 58.6127 19.8167 57.9127 20C57.2127 20.1833 56.3544 20.275 55.3377 20.275C53.8877 20.275 52.646 19.9583 51.6127 19.325C50.5794 18.675 49.7877 17.8083 49.2377 16.725C48.6877 15.625 48.4127 14.4 48.4127 13.05C48.4127 11.6833 48.696 10.4583 49.2627 9.375C49.8294 8.275 50.621 7.40833 51.6377 6.775C52.671 6.14167 53.871 5.825 55.2377 5.825C56.571 5.825 57.7127 6.13333 58.6627 6.75C59.6294 7.35 60.371 8.21667 60.8877 9.35C61.4044 10.4667 61.6627 11.8 61.6627 13.35V13.775H52.6127L52.0627 11.825L58.2127 11.325C58.1627 10.4417 57.9127 9.725 57.4627 9.175C57.0294 8.60833 56.3294 8.325 55.3627 8.325C54.246 8.325 53.321 8.74167 52.5877 9.575C51.871 10.3917 51.5127 11.5583 51.5127 13.075C51.5127 14.1583 51.7127 15.0583 52.1127 15.775C52.5294 16.475 53.046 17 53.6627 17.35C54.296 17.6833 54.9294 17.85 55.5627 17.85C56.6294 17.85 57.5794 17.675 58.4127 17.325C59.2627 16.9583 59.9294 16.4667 60.4127 15.85L61.3127 17.55ZM64.6703 20.325V-2.98023e-07L68.2953 0.499999L67.7953 20L64.6703 20.325ZM71.9945 20.325V-2.98023e-07L75.6195 0.499999L75.1195 20L71.9945 20.325ZM91.2688 17.55C90.7854 18.2 90.2688 18.725 89.7188 19.125C89.1854 19.525 88.5688 19.8167 87.8688 20C87.1688 20.1833 86.3104 20.275 85.2938 20.275C83.8438 20.275 82.6021 19.9583 81.5688 19.325C80.5354 18.675 79.7438 17.8083 79.1938 16.725C78.6438 15.625 78.3688 14.4 78.3688 13.05C78.3688 11.6833 78.6521 10.4583 79.2188 9.375C79.7854 8.275 80.5771 7.40833 81.5938 6.775C82.6271 6.14167 83.8271 5.825 85.1938 5.825C86.5271 5.825 87.6688 6.13333 88.6188 6.75C89.5854 7.35 90.3271 8.21667 90.8438 9.35C91.3604 10.4667 91.6188 11.8 91.6188 13.35V13.775H82.5688L82.0188 11.825L88.1688 11.325C88.1188 10.4417 87.8688 9.725 87.4188 9.175C86.9854 8.60833 86.2854 8.325 85.3188 8.325C84.2021 8.325 83.2771 8.74167 82.5438 9.575C81.8271 10.3917 81.4688 11.5583 81.4688 13.075C81.4688 14.1583 81.6688 15.0583 82.0688 15.775C82.4854 16.475 83.0021 17 83.6188 17.35C84.2521 17.6833 84.8854 17.85 85.5188 17.85C86.5854 17.85 87.5354 17.675 88.3688 17.325C89.2188 16.9583 89.8854 16.4667 90.3688 15.85L91.2688 17.55ZM94.9264 20.35L94.4264 5.7L97.9764 6.125V7.55C98.293 7.15 98.6097 6.825 98.9264 6.575C99.2597 6.325 99.6764 6.14167 100.176 6.025C100.676 5.90833 101.335 5.84167 102.151 5.825L102.726 8.875C102.176 8.775 101.676 8.725 101.226 8.725C99.543 8.725 98.4597 9.4 97.9764 10.75V20L94.9264 20.35Z" fill="black"/>
<path d="M114.466 20L114.041 3.275C113.808 3.29167 113.583 3.31667 113.366 3.35C113.166 3.38333 112.983 3.41667 112.816 3.45L112.316 1.25C112.783 1.15 113.383 1.05 114.116 0.949999C114.866 0.833332 115.675 0.724999 116.541 0.624999C117.425 0.508332 118.291 0.416665 119.141 0.35C119.991 0.283333 120.758 0.249999 121.441 0.249999C122.675 0.249999 123.766 0.441666 124.716 0.825C125.683 1.20833 126.433 1.775 126.966 2.525C127.516 3.25833 127.791 4.15833 127.791 5.225C127.791 6.375 127.516 7.30833 126.966 8.025C126.416 8.74167 125.675 9.19167 124.741 9.375L124.766 9.425C125.466 9.49167 126.108 9.74167 126.691 10.175C127.291 10.6083 127.766 11.1917 128.116 11.925C128.483 12.6583 128.666 13.5333 128.666 14.55C128.666 15.75 128.375 16.7583 127.791 17.575C127.225 18.375 126.416 18.9833 125.366 19.4C124.333 19.8 123.116 20 121.716 20H114.466ZM117.466 8.925C117.866 8.925 118.325 8.91667 118.841 8.9C119.375 8.88333 119.891 8.85833 120.391 8.825C120.908 8.79167 121.333 8.74167 121.666 8.675C122.5 8.50833 123.166 8.18333 123.666 7.7C124.183 7.21667 124.441 6.58333 124.441 5.8C124.441 5.18333 124.291 4.65 123.991 4.2C123.691 3.75 123.3 3.4 122.816 3.15C122.333 2.9 121.8 2.775 121.216 2.775C120 2.775 118.75 2.825 117.466 2.925V8.925ZM118.091 17.625C118.908 17.625 119.733 17.6 120.566 17.55C121.4 17.5 122.1 17.4167 122.666 17.3C123.6 17.1 124.291 16.725 124.741 16.175C125.191 15.6083 125.416 14.9 125.416 14.05C125.416 13.4333 125.25 12.925 124.916 12.525C124.583 12.1083 124.15 11.8 123.616 11.6C123.1 11.4 122.533 11.3 121.916 11.3H117.466V17.625H118.091ZM141.908 20.25C141.492 19.9167 141.167 19.6 140.933 19.3C140.717 18.9833 140.533 18.6083 140.383 18.175C140.083 18.6917 139.658 19.1083 139.108 19.425C138.558 19.725 137.942 19.9417 137.258 20.075C136.592 20.2083 135.908 20.275 135.208 20.275C133.792 20.275 132.725 19.95 132.008 19.3C131.292 18.65 130.917 17.7417 130.883 16.575V16.475C130.883 15.1417 131.308 14.0917 132.158 13.325C133.008 12.5583 134.192 12.0083 135.708 11.675C136.742 11.4417 137.608 11.1917 138.308 10.925C139.025 10.6417 139.383 10.325 139.383 9.975C139.383 8.85833 138.508 8.3 136.758 8.3C135.875 8.3 135.017 8.475 134.183 8.825C133.35 9.15833 132.667 9.55833 132.133 10.025L131.133 8.225C131.717 7.45833 132.517 6.86667 133.533 6.45C134.567 6.03333 135.733 5.825 137.033 5.825C138.967 5.825 140.417 6.18333 141.383 6.9C142.367 7.6 142.858 8.70833 142.858 10.225V15.9C142.858 16.55 142.983 17.1917 143.233 17.825C143.483 18.4583 143.842 19.0083 144.308 19.475L141.908 20.25ZM134.333 16.225C134.35 16.675 134.483 17.0583 134.733 17.375C134.983 17.6917 135.358 17.85 135.858 17.85C136.592 17.85 137.308 17.6417 138.008 17.225C138.708 16.8083 139.192 16.2833 139.458 15.65C139.542 15.4667 139.592 15.2417 139.608 14.975C139.642 14.6917 139.658 14.4 139.658 14.1C139.658 13.6667 139.642 13.275 139.608 12.925C139.575 12.575 139.558 12.4 139.558 12.4C139.192 12.6833 138.717 12.925 138.133 13.125C137.567 13.325 136.967 13.5167 136.333 13.7C135.717 13.8667 135.225 14.1417 134.858 14.525C134.508 14.9083 134.333 15.4167 134.333 16.05V16.225ZM145.772 20V17.5L153.047 8.9L146.822 8.925L146.322 6.625L156.897 5.725L157.397 8.875L149.022 17.575L157.722 16.75V20H145.772ZM159.42 20V17.5L166.695 8.9L160.47 8.925L159.97 6.625L170.545 5.725L171.045 8.875L162.67 17.575L171.37 16.75V20H159.42ZM184.242 20.25C183.826 19.9167 183.501 19.6 183.267 19.3C183.051 18.9833 182.867 18.6083 182.717 18.175C182.417 18.6917 181.992 19.1083 181.442 19.425C180.892 19.725 180.276 19.9417 179.592 20.075C178.926 20.2083 178.242 20.275 177.542 20.275C176.126 20.275 175.059 19.95 174.342 19.3C173.626 18.65 173.251 17.7417 173.217 16.575V16.475C173.217 15.1417 173.642 14.0917 174.492 13.325C175.342 12.5583 176.526 12.0083 178.042 11.675C179.076 11.4417 179.942 11.1917 180.642 10.925C181.359 10.6417 181.717 10.325 181.717 9.975C181.717 8.85833 180.842 8.3 179.092 8.3C178.209 8.3 177.351 8.475 176.517 8.825C175.684 9.15833 175.001 9.55833 174.467 10.025L173.467 8.225C174.051 7.45833 174.851 6.86667 175.867 6.45C176.901 6.03333 178.067 5.825 179.367 5.825C181.301 5.825 182.751 6.18333 183.717 6.9C184.701 7.6 185.192 8.70833 185.192 10.225V15.9C185.192 16.55 185.317 17.1917 185.567 17.825C185.817 18.4583 186.176 19.0083 186.642 19.475L184.242 20.25ZM176.667 16.225C176.684 16.675 176.817 17.0583 177.067 17.375C177.317 17.6917 177.692 17.85 178.192 17.85C178.926 17.85 179.642 17.6417 180.342 17.225C181.042 16.8083 181.526 16.2833 181.792 15.65C181.876 15.4667 181.926 15.2417 181.942 14.975C181.976 14.6917 181.992 14.4 181.992 14.1C181.992 13.6667 181.976 13.275 181.942 12.925C181.909 12.575 181.892 12.4 181.892 12.4C181.526 12.6833 181.051 12.925 180.467 13.125C179.901 13.325 179.301 13.5167 178.667 13.7C178.051 13.8667 177.559 14.1417 177.192 14.525C176.842 14.9083 176.667 15.4167 176.667 16.05V16.225ZM189.506 20.35L189.006 5.7L192.556 6.125V7.55C192.873 7.15 193.19 6.825 193.506 6.575C193.84 6.325 194.256 6.14167 194.756 6.025C195.256 5.90833 195.915 5.84167 196.731 5.825L197.306 8.875C196.756 8.775 196.256 8.725 195.806 8.725C194.123 8.725 193.04 9.4 192.556 10.75V20L189.506 20.35Z" fill="#D10024"/>
</svg>
